<svg width="210" height="97" viewBox="0 0 210 97" fill="none" xmlns="http://www.w3.org/2000/svg">
<path d="M61.2092 71.6745C61.2092 75.8463 61.4654 80.5304 61.9777 85.7268C57.0009 85.5073 48.6207 85.3975 36.8373 85.3975C22.785 85.3975 12.1725 85.5073 5 85.7268V83.5312C7.63481 83.3848 9.53773 83.092 10.7088 82.6529C11.953 82.2138 12.7946 81.3721 13.2338 80.1279C13.6729 78.8837 13.8925 76.871 13.8925 74.0898V19.6371C13.8925 16.8559 13.6729 14.8432 13.2338 13.599C12.7946 12.3548 11.953 11.5131 10.7088 11.0739C9.53773 10.6348 7.63481 10.342 5 10.1957V8C12.1725 8.21956 22.785 8.32935 36.8373 8.32935C47.5961 8.32935 55.2443 8.21956 59.7821 8C59.2697 12.8305 59.0136 17.1486 59.0136 20.9545C59.0136 23.8088 59.1234 26.0777 59.3429 27.7611H56.8179C56.3056 23.0038 55.6469 19.4907 54.8418 17.2218C54.0367 14.8798 52.6827 13.1964 50.7798 12.1718C48.8769 11.0739 45.9859 10.525 42.1069 10.525H32.9948C30.36 10.525 28.4205 10.7446 27.1763 11.1837C26.0053 11.5497 25.2002 12.3548 24.7611 13.599C24.3219 14.8432 24.1024 16.8559 24.1024 19.6371V45.546H31.3481C33.9097 45.546 35.8858 44.9605 37.2764 43.7895C38.667 42.5453 39.5819 41.1181 40.021 39.5079C40.5333 37.8246 40.9359 35.7387 41.2286 33.2502L41.558 31.0546H44.083C43.8634 34.1285 43.7536 37.5684 43.7536 41.3742V46.6439C43.7536 50.3765 43.9732 55.5729 44.4123 62.2331H41.8873C41.8141 61.7208 41.5946 59.9643 41.2286 56.9635C40.8627 53.8896 39.838 51.5841 38.1547 50.0471C36.5445 48.5102 34.2757 47.7417 31.3481 47.7417H24.1024V74.0898C24.1024 76.871 24.3219 78.8837 24.7611 80.1279C25.2002 81.3721 26.0053 82.2138 27.1763 82.6529C28.4205 83.0189 30.36 83.2018 32.9948 83.2018H41.009C45.5468 83.2018 48.9867 82.6163 51.3287 81.4453C53.7439 80.2011 55.5005 78.2616 56.5983 75.6267C57.6962 72.9187 58.5012 68.9665 59.0136 63.7701H61.5386C61.319 65.7462 61.2092 68.381 61.2092 71.6745Z" fill="#252525"/>
<path d="M131.483 8.32935C134.777 8.32935 137.521 8.21956 139.717 8V10.1957C136.058 11.0739 133.167 14.2577 131.044 19.7469L105.245 86.2758H103.488L76.7012 17.2218C74.9447 12.6841 72.4197 10.342 69.1262 10.1957V8C72.0537 8.21956 75.9693 8.32935 80.873 8.32935C87.1673 8.32935 91.8514 8.21956 94.9253 8V10.1957C92.1441 10.342 90.1314 10.708 88.8872 11.2935C87.7162 11.8058 87.1307 12.7939 87.1307 14.2577C87.1307 15.5019 87.5698 17.2218 88.4481 19.4175L108.319 72.2234L126.214 25.785C127.677 21.8327 128.409 18.832 128.409 16.7827C128.409 14.5138 127.604 12.8671 125.994 11.8424C124.457 10.8178 122.078 10.2689 118.858 10.1957V8C123.03 8.21956 127.238 8.32935 131.483 8.32935Z" fill="#252525"/>
<path d="M148.312 71.6745C148.312 75.8463 148.055 80.5304 147.543 85.7268C152.52 85.5073 160.9 85.3975 172.684 85.3975C186.736 85.3975 197.348 85.5073 204.521 85.7268V83.5312C201.886 83.3848 199.983 83.092 198.812 82.6529C197.568 82.2138 196.726 81.3721 196.287 80.1279C195.848 78.8837 195.628 76.871 195.628 74.0898V19.6371C195.628 16.8559 195.848 14.8432 196.287 13.599C196.726 12.3548 197.568 11.5131 198.812 11.0739C199.983 10.6348 201.886 10.342 204.521 10.1957V8C197.348 8.21956 186.736 8.32935 172.684 8.32935C161.925 8.32935 154.277 8.21956 149.739 8C150.251 12.8305 150.507 17.1486 150.507 20.9545C150.507 23.8088 150.398 26.0777 150.178 27.7611H152.703C153.215 23.0038 153.874 19.4907 154.679 17.2218C155.484 14.8798 156.838 13.1964 158.741 12.1718C160.644 11.0739 163.535 10.525 167.414 10.525H176.526C179.161 10.525 181.1 10.7446 182.345 11.1837C183.516 11.5497 184.321 12.3548 184.76 13.599C185.199 14.8432 185.419 16.8559 185.419 19.6371V45.546H178.173C175.611 45.546 173.635 44.9605 172.244 43.7895C170.854 42.5453 169.939 41.1181 169.5 39.5079C168.988 37.8246 168.585 35.7387 168.292 33.2502L167.963 31.0546H165.438C165.657 34.1285 165.767 37.5684 165.767 41.3742V46.6439C165.767 50.3765 165.548 55.5729 165.109 62.2331H167.634C167.707 61.7208 167.926 59.9643 168.292 56.9635C168.658 53.8896 169.683 51.5841 171.366 50.0471C172.976 48.5102 175.245 47.7417 178.173 47.7417H185.419V74.0898C185.419 76.871 185.199 78.8837 184.76 80.1279C184.321 81.3721 183.516 82.2138 182.345 82.6529C181.1 83.0189 179.161 83.2018 176.526 83.2018H168.512C163.974 83.2018 160.534 82.6163 158.192 81.4453C155.777 80.2011 154.02 78.2616 152.923 75.6267C151.825 72.9187 151.02 68.9665 150.507 63.7701H147.982C148.202 65.7462 148.312 68.381 148.312 71.6745Z" fill="#252525"/>
</svg>
